<?xml version="1.0" encoding="UTF-8"?>
<!DOCTYPE svg PUBLIC "-//W3C//DTD SVG 1.1//EN" "http://www.w3.org/Graphics/SVG/1.1/DTD/svg11.dtd">
<svg xmlns="http://www.w3.org/2000/svg" version="1.1" width="288px" height="288px" style="shape-rendering:geometricPrecision; text-rendering:geometricPrecision; image-rendering:optimizeQuality; fill-rule:evenodd; clip-rule:evenodd"
    xmlns:xlink="http://www.w3.org/1999/xlink">
    <g>
        <path style="opacity:0.975" fill="#030017" d="M 198.5,48.5 C 196.876,48.6399 195.71,47.9733 195,46.5C 193.956,47.6226 193.29,48.9559 193,50.5C 192.333,48.5 191.667,46.5 191,44.5C 190.275,46.158 189.108,46.658 187.5,46C 186.167,45.3333 186.167,44.6667 187.5,44C 185.671,43.7265 184.171,42.8932 183,41.5C 182.641,44.5443 181.974,44.8776 181,42.5C 180.085,43.3279 179.419,44.3279 179,45.5C 178.779,42.0569 177.779,41.7236 176,44.5C 173.237,42.614 170.903,40.2807 169,37.5C 168.508,38.549 168.674,39.549 169.5,40.5C 168.675,41.3857 167.675,41.719 166.5,41.5C 166.762,40.0222 166.429,38.6888 165.5,37.5C 163.995,40.1306 163.329,39.7973 163.5,36.5C 161.799,36.9662 160.299,36.9662 159,36.5C 158.667,37.1667 158.333,37.8333 158,38.5C 156.684,37.0257 155.684,35.359 155,33.5C 154.581,34.6721 153.915,35.6721 153,36.5C 152.632,35.09 151.799,34.09 150.5,33.5C 149.575,34.6405 148.741,34.6405 148,33.5C 147.125,35.5127 145.791,35.5127 144,33.5C 143.935,31.1167 143.102,30.45 141.5,31.5C 139.974,29.3418 138.474,29.6751 137,32.5C 136.431,28.6395 135.598,28.6395 134.5,32.5C 134.467,31.011 133.967,29.6776 133,28.5C 132.781,29.938 132.281,31.2713 131.5,32.5C 129.841,29.3488 127.674,26.6822 125,24.5C 124.667,25.8333 124.333,27.1667 124,28.5C 123,27.1667 122,25.8333 121,24.5C 120.309,26.8912 119.309,26.8912 118,24.5C 116.551,28.3008 114.717,28.4675 112.5,25C 113.978,23.8069 115.312,23.3069 116.5,23.5C 114.892,22.7579 113.225,22.5913 111.5,23C 112.451,22.2825 112.617,21.4491 112,20.5C 111,21.1667 110,21.8333 109,22.5C 107.39,22.8696 105.89,22.2029 104.5,20.5C 103.719,21.7366 102.719,22.7366 101.5,23.5C 100.289,22.7261 100.289,21.8928 101.5,21C 100.285,18.9045 99.4512,19.0712 99,21.5C 98.7679,20.2625 98.2679,19.2625 97.5,18.5C 99.273,10.8933 103.94,6.06001 111.5,4C 132.833,3.33333 154.167,3.33333 175.5,4C 179.722,5.02624 183.222,7.1929 186,10.5C 191.091,22.8644 195.258,35.5311 198.5,48.5 Z"/>
    </g>
    <g>
        <path style="opacity:0.997" fill="#050018" d="M 97.5,18.5 C 98.2679,19.2625 98.7679,20.2625 99,21.5C 99.4512,19.0712 100.285,18.9045 101.5,21C 100.289,21.8928 100.289,22.7261 101.5,23.5C 102.719,22.7366 103.719,21.7366 104.5,20.5C 105.89,22.2029 107.39,22.8696 109,22.5C 110,21.8333 111,21.1667 112,20.5C 112.617,21.4491 112.451,22.2825 111.5,23C 113.225,22.5913 114.892,22.7579 116.5,23.5C 115.312,23.3069 113.978,23.8069 112.5,25C 114.717,28.4675 116.551,28.3008 118,24.5C 119.309,26.8912 120.309,26.8912 121,24.5C 122,25.8333 123,27.1667 124,28.5C 124.333,27.1667 124.667,25.8333 125,24.5C 127.674,26.6822 129.841,29.3488 131.5,32.5C 132.281,31.2713 132.781,29.938 133,28.5C 133.967,29.6776 134.467,31.011 134.5,32.5C 135.598,28.6395 136.431,28.6395 137,32.5C 138.474,29.6751 139.974,29.3418 141.5,31.5C 143.102,30.45 143.935,31.1167 144,33.5C 145.791,35.5127 147.125,35.5127 148,33.5C 148.741,34.6405 149.575,34.6405 150.5,33.5C 151.799,34.09 152.632,35.09 153,36.5C 153.915,35.6721 154.581,34.6721 155,33.5C 155.684,35.359 156.684,37.0257 158,38.5C 158.333,37.8333 158.667,37.1667 159,36.5C 160.299,36.9662 161.799,36.9662 163.5,36.5C 163.329,39.7973 163.995,40.1306 165.5,37.5C 166.429,38.6888 166.762,40.0222 166.5,41.5C 167.675,41.719 168.675,41.3857 169.5,40.5C 168.674,39.549 168.508,38.549 169,37.5C 170.903,40.2807 173.237,42.614 176,44.5C 177.779,41.7236 178.779,42.0569 179,45.5C 179.419,44.3279 180.085,43.3279 181,42.5C 181.974,44.8776 182.641,44.5443 183,41.5C 184.171,42.8932 185.671,43.7265 187.5,44C 186.167,44.6667 186.167,45.3333 187.5,46C 189.108,46.658 190.275,46.158 191,44.5C 191.667,46.5 192.333,48.5 193,50.5C 193.29,48.9559 193.956,47.6226 195,46.5C 195.71,47.9733 196.876,48.6399 198.5,48.5C 200.125,52.3028 201.458,56.3028 202.5,60.5C 201.25,60.4226 200.417,59.756 200,58.5C 198.316,60.2396 196.482,61.4063 194.5,62C 195.167,60.6667 196.167,59.6667 197.5,59C 196.216,58.3162 195.049,58.4829 194,59.5C 193.333,56.8333 192.667,56.8333 192,59.5C 190.255,58.0443 188.422,56.711 186.5,55.5C 185.808,56.0253 185.308,56.6919 185,57.5C 182.721,55.837 180.387,54.1704 178,52.5C 177.692,53.3081 177.192,53.9747 176.5,54.5C 174.293,52.3173 171.626,50.9839 168.5,50.5C 167.917,48.9984 167.084,47.6651 166,46.5C 164.951,48.1066 163.451,48.7733 161.5,48.5C 161.649,49.552 161.483,50.552 161,51.5C 159.62,48.1171 157.12,46.2838 153.5,46C 154.34,44.3335 153.84,44.1669 152,45.5C 151.667,44.8333 151.333,44.1667 151,43.5C 150.333,44.8333 149.667,46.1667 149,47.5C 148.626,46.5838 148.126,45.7504 147.5,45C 144.966,44.4837 142.8,43.317 141,41.5C 138.679,44.0325 136.679,43.6992 135,40.5C 133.612,41.5536 132.112,41.7203 130.5,41C 129.377,39.9563 128.044,39.2896 126.5,39C 127.654,38.0862 127.487,37.2529 126,36.5C 125.667,37.1667 125.333,37.8333 125,38.5C 123.783,37.6141 122.449,36.6141 121,35.5C 119.956,36.6226 119.29,37.9559 119,39.5C 117.71,37.208 116.043,35.208 114,33.5C 113.333,34.1667 112.667,34.8333 112,35.5C 111.138,33.913 110.471,32.2464 110,30.5C 108.887,31.7604 108.72,32.927 109.5,34C 108.552,34.4828 107.552,34.6495 106.5,34.5C 106.649,33.448 106.483,32.448 106,31.5C 105,32.8333 104,32.8333 103,31.5C 102.333,34.1667 101.667,34.1667 101,31.5C 100.439,32.0219 99.772,32.3552 99,32.5C 97.699,30.8446 96.199,29.5113 94.5,28.5C 95.5,25.1667 96.5,21.8333 97.5,18.5 Z"/>
    </g>
    <g>
        <path style="opacity:0.985" fill="#09011c" d="M 94.5,28.5 C 96.199,29.5113 97.699,30.8446 99,32.5C 99.772,32.3552 100.439,32.0219 101,31.5C 101.667,34.1667 102.333,34.1667 103,31.5C 104,32.8333 105,32.8333 106,31.5C 106.483,32.448 106.649,33.448 106.5,34.5C 107.552,34.6495 108.552,34.4828 109.5,34C 108.72,32.927 108.887,31.7604 110,30.5C 110.471,32.2464 111.138,33.913 112,35.5C 112.667,34.8333 113.333,34.1667 114,33.5C 116.043,35.208 117.71,37.208 119,39.5C 119.29,37.9559 119.956,36.6226 121,35.5C 122.449,36.6141 123.783,37.6141 125,38.5C 125.333,37.8333 125.667,37.1667 126,36.5C 127.487,37.2529 127.654,38.0862 126.5,39C 128.044,39.2896 129.377,39.9563 130.5,41C 132.112,41.7203 133.612,41.5536 135,40.5C 136.679,43.6992 138.679,44.0325 141,41.5C 142.8,43.317 144.966,44.4837 147.5,45C 148.126,45.7504 148.626,46.5838 149,47.5C 149.667,46.1667 150.333,44.8333 151,43.5C 151.333,44.1667 151.667,44.8333 152,45.5C 153.84,44.1669 154.34,44.3335 153.5,46C 157.12,46.2838 159.62,48.1171 161,51.5C 161.483,50.552 161.649,49.552 161.5,48.5C 163.451,48.7733 164.951,48.1066 166,46.5C 167.084,47.6651 167.917,48.9984 168.5,50.5C 171.626,50.9839 174.293,52.3173 176.5,54.5C 177.192,53.9747 177.692,53.3081 178,52.5C 180.387,54.1704 182.721,55.837 185,57.5C 185.308,56.6919 185.808,56.0253 186.5,55.5C 188.422,56.711 190.255,58.0443 192,59.5C 192.667,56.8333 193.333,56.8333 194,59.5C 195.049,58.4829 196.216,58.3162 197.5,59C 196.167,59.6667 195.167,60.6667 194.5,62C 196.482,61.4063 198.316,60.2396 200,58.5C 200.417,59.756 201.25,60.4226 202.5,60.5C 209.905,83.7144 216.905,107.048 223.5,130.5C 221.401,130.028 219.401,130.028 217.5,130.5C 216.532,126.227 215.365,126.56 214,131.5C 213.138,129.913 212.471,128.246 212,126.5C 211.667,126.833 211.333,127.167 211,127.5C 209.35,124.894 207.85,124.894 206.5,127.5C 206.719,126.325 206.386,125.325 205.5,124.5C 204.11,126.203 202.61,126.87 201,126.5C 200.612,124.285 199.612,122.952 198,122.5C 196.602,123.051 195.268,123.384 194,123.5C 189.808,122.512 186.141,120.845 183,118.5C 182.283,119.044 181.783,119.711 181.5,120.5C 181.167,120.5 180.833,120.5 180.5,120.5C 180.649,119.448 180.483,118.448 180,117.5C 179.667,117.833 179.333,118.167 179,118.5C 177.212,117.642 175.378,116.642 173.5,115.5C 171.297,115.587 169.13,115.587 167,115.5C 164.554,114.555 163.054,112.889 162.5,110.5C 157.046,94.0449 151.88,77.3782 147,60.5C 145.174,56.9626 142.84,56.6293 140,59.5C 135.928,73.8805 131.761,88.2138 127.5,102.5C 126.542,102.047 125.708,101.381 125,100.5C 124.583,101.756 123.75,102.423 122.5,102.5C 122.217,101.711 121.717,101.044 121,100.5C 119.447,102.673 117.614,103.34 115.5,102.5C 114.226,101.811 114.226,100.977 115.5,100C 114.007,98.6319 112.507,98.4652 111,99.5C 108.904,98.2845 109.071,97.4512 111.5,97C 108.315,94.5744 105.815,95.0744 104,98.5C 103.935,96.1167 103.102,95.45 101.5,96.5C 100.808,95.9747 100.308,95.3081 100,94.5C 99.7508,95.624 99.2508,96.624 98.5,97.5C 96.9564,95.058 94.9564,93.058 92.5,91.5C 91.0944,92.6682 89.9277,92.3348 89,90.5C 87.955,91.3734 87.1217,92.3734 86.5,93.5C 85.8826,93.6107 85.3826,93.944 85,94.5C 85,93.1667 85,91.8333 85,90.5C 84.2917,91.3805 83.4584,92.0472 82.5,92.5C 82.741,89.001 81.9076,88.6677 80,91.5C 79.2798,89.9443 78.1132,88.9443 76.5,88.5C 82.1928,68.3927 88.1928,48.3927 94.5,28.5 Z"/>
    </g>
    <g>
        <path style="opacity:1" fill="#0c021f" d="M 76.5,88.5 C 78.1132,88.9443 79.2798,89.9443 80,91.5C 81.9076,88.6677 82.741,89.001 82.5,92.5C 81.5384,94.9856 80.7051,94.9856 80,92.5C 79.6667,92.8333 79.3333,93.1667 79,93.5C 78.2411,91.9371 77.0744,90.9371 75.5,90.5C 75.3284,89.5084 75.6618,88.8417 76.5,88.5 Z"/>
    </g>
    <g>
        <path style="opacity:0.975" fill="#0f0321" d="M 75.5,90.5 C 77.0744,90.9371 78.2411,91.9371 79,93.5C 79.3333,93.1667 79.6667,92.8333 80,92.5C 80.7051,94.9856 81.5384,94.9856 82.5,92.5C 83.4584,92.0472 84.2917,91.3805 85,90.5C 85,91.8333 85,93.1667 85,94.5C 85.3826,93.944 85.8826,93.6107 86.5,93.5C 86.9418,94.2312 87.1085,95.2312 87,96.5C 89.276,93.9364 91.276,94.2697 93,97.5C 93.3333,97.1667 93.6667,96.8333 94,96.5C 94.3742,97.4162 94.8742,98.2496 95.5,99C 97.1012,99.2734 98.6012,99.7734 100,100.5C 100.333,100.167 100.667,99.8333 101,99.5C 101.388,100.428 102.055,101.095 103,101.5C 104.091,99.6542 105.424,98.9875 107,99.5C 109.708,101.292 112.375,102.959 115,104.5C 115.464,103.906 115.631,103.239 115.5,102.5C 117.614,103.34 119.447,102.673 121,100.5C 121.717,101.044 122.217,101.711 122.5,102.5C 122.34,104.199 122.506,105.866 123,107.5C 123.977,106.226 124.811,106.226 125.5,107.5C 120.9,124.966 115.9,142.299 110.5,159.5C 110.093,158.238 109.76,156.905 109.5,155.5C 108.252,156.04 107.085,156.707 106,157.5C 104.027,156.36 102.193,155.027 100.5,153.5C 99.2268,153.746 98.0601,153.746 97,153.5C 95.7964,152.529 95.2964,151.529 95.5,150.5C 94.7492,151.376 94.2492,152.376 94,153.5C 90.9073,152.264 88.0739,150.597 85.5,148.5C 84.8076,149.025 84.3076,149.692 84,150.5C 82.5768,145.379 81.5768,145.379 81,150.5C 79.3831,149.464 79.2164,148.297 80.5,147C 78.2305,146.242 76.0639,146.409 74,147.5C 73,146.5 72,145.5 71,144.5C 69.8831,144.665 68.7164,144.998 67.5,145.5C 65.8333,144.167 64.1667,142.833 62.5,141.5C 60.9954,144.131 60.3287,143.797 60.5,140.5C 65.1009,123.699 70.1009,107.032 75.5,90.5 Z"/>
    </g>
    <g>
        <path style="opacity:1" fill="#0c021f" d="M 115.5,102.5 C 115.631,103.239 115.464,103.906 115,104.5C 112.375,102.959 109.708,101.292 107,99.5C 105.424,98.9875 104.091,99.6542 103,101.5C 102.055,101.095 101.388,100.428 101,99.5C 100.667,99.8333 100.333,100.167 100,100.5C 98.6012,99.7734 97.1012,99.2734 95.5,99C 94.8742,98.2496 94.3742,97.4162 94,96.5C 93.6667,96.8333 93.3333,97.1667 93,97.5C 91.276,94.2697 89.276,93.9364 87,96.5C 87.1085,95.2312 86.9418,94.2312 86.5,93.5C 87.1217,92.3734 87.955,91.3734 89,90.5C 89.9277,92.3348 91.0944,92.6682 92.5,91.5C 94.9564,93.058 96.9564,95.058 98.5,97.5C 99.2508,96.624 99.7508,95.624 100,94.5C 100.308,95.3081 100.808,95.9747 101.5,96.5C 103.102,95.45 103.935,96.1167 104,98.5C 105.815,95.0744 108.315,94.5744 111.5,97C 109.071,97.4512 108.904,98.2845 111,99.5C 112.507,98.4652 114.007,98.6319 115.5,100C 114.226,100.977 114.226,101.811 115.5,102.5 Z"/>
    </g>
    <g>
        <path style="opacity:0.997" fill="#0c021f" d="M 127.5,102.5 C 126.976,104.306 126.309,105.972 125.5,107.5C 124.811,106.226 123.977,106.226 123,107.5C 122.506,105.866 122.34,104.199 122.5,102.5C 123.75,102.423 124.583,101.756 125,100.5C 125.708,101.381 126.542,102.047 127.5,102.5 Z"/>
    </g>
    <g>
        <path style="opacity:1" fill="#0d021f" d="M 162.5,110.5 C 163.054,112.889 164.554,114.555 167,115.5C 169.13,115.587 171.297,115.587 173.5,115.5C 175.378,116.642 177.212,117.642 179,118.5C 179.333,118.167 179.667,117.833 180,117.5C 180.483,118.448 180.649,119.448 180.5,120.5C 180.217,121.289 179.717,121.956 179,122.5C 178.259,121.359 177.425,121.359 176.5,122.5C 175.667,121.5 174.833,120.5 174,119.5C 172.348,120.068 170.682,121.401 169,123.5C 167.322,122.318 167.488,121.152 169.5,120C 169.333,119.5 169.167,119 169,118.5C 168.29,119.973 167.124,120.64 165.5,120.5C 163.723,117.495 162.723,114.162 162.5,110.5 Z"/>
    </g>
    <g>
        <path style="opacity:0.962" fill="#0f0321" d="M 180.5,120.5 C 180.833,120.5 181.167,120.5 181.5,120.5C 182.953,121.825 182.619,122.658 180.5,123C 181.849,123.772 182.682,124.939 183,126.5C 184.676,125.939 186.009,124.939 187,123.5C 188.309,125.891 189.309,125.891 190,123.5C 190.065,125.883 190.898,126.55 192.5,125.5C 192.489,126.441 192.989,127.108 194,127.5C 195.152,125.488 196.318,125.322 197.5,127C 196.346,127.914 196.513,128.747 198,129.5C 198.423,128.044 199.256,127.544 200.5,128C 199.007,129.156 199.174,129.99 201,130.5C 202.722,130.389 202.888,129.889 201.5,129C 202.549,128.508 203.549,128.674 204.5,129.5C 205.182,128.757 205.849,128.091 206.5,127.5C 206.651,130.718 207.484,131.051 209,128.5C 209.684,130.359 210.684,132.026 212,133.5C 212.414,133.043 212.914,132.709 213.5,132.5C 215.029,133.284 216.696,134.284 218.5,135.5C 220.862,135.519 223.195,135.519 225.5,135.5C 230.663,152.148 235.83,168.815 241,185.5C 241.995,188.126 242.328,190.793 242,193.5C 222.878,183.681 202.711,176.848 181.5,173C 175.278,155.828 169.944,138.328 165.5,120.5C 167.124,120.64 168.29,119.973 169,118.5C 169.167,119 169.333,119.5 169.5,120C 167.488,121.152 167.322,122.318 169,123.5C 170.682,121.401 172.348,120.068 174,119.5C 174.833,120.5 175.667,121.5 176.5,122.5C 177.425,121.359 178.259,121.359 179,122.5C 179.717,121.956 180.217,121.289 180.5,120.5 Z"/>
    </g>
    <g>
        <path style="opacity:1" fill="#0c021f" d="M 206.5,127.5 C 205.849,128.091 205.182,128.757 204.5,129.5C 203.549,128.674 202.549,128.508 201.5,129C 202.888,129.889 202.722,130.389 201,130.5C 199.174,129.99 199.007,129.156 200.5,128C 199.256,127.544 198.423,128.044 198,129.5C 196.513,128.747 196.346,127.914 197.5,127C 196.318,125.322 195.152,125.488 194,127.5C 192.989,127.108 192.489,126.441 192.5,125.5C 190.898,126.55 190.065,125.883 190,123.5C 189.309,125.891 188.309,125.891 187,123.5C 186.009,124.939 184.676,125.939 183,126.5C 182.682,124.939 181.849,123.772 180.5,123C 182.619,122.658 182.953,121.825 181.5,120.5C 181.783,119.711 182.283,119.044 183,118.5C 186.141,120.845 189.808,122.512 194,123.5C 195.268,123.384 196.602,123.051 198,122.5C 199.612,122.952 200.612,124.285 201,126.5C 202.61,126.87 204.11,126.203 205.5,124.5C 206.386,125.325 206.719,126.325 206.5,127.5 Z"/>
    </g>
    <g>
        <path style="opacity:0.967" fill="#0d021f" d="M 223.5,130.5 C 224.537,131.93 225.204,133.597 225.5,135.5C 223.195,135.519 220.862,135.519 218.5,135.5C 216.696,134.284 215.029,133.284 213.5,132.5C 212.914,132.709 212.414,133.043 212,133.5C 210.684,132.026 209.684,130.359 209,128.5C 207.484,131.051 206.651,130.718 206.5,127.5C 207.85,124.894 209.35,124.894 211,127.5C 211.333,127.167 211.667,126.833 212,126.5C 212.471,128.246 213.138,129.913 214,131.5C 215.365,126.56 216.532,126.227 217.5,130.5C 219.401,130.028 221.401,130.028 223.5,130.5 Z"/>
    </g>
    <g>
        <path style="opacity:0.985" fill="#130324" d="M 60.5,140.5 C 60.3287,143.797 60.9954,144.131 62.5,141.5C 64.1667,142.833 65.8333,144.167 67.5,145.5C 68.7164,144.998 69.8831,144.665 71,144.5C 72,145.5 73,146.5 74,147.5C 76.0639,146.409 78.2305,146.242 80.5,147C 79.2164,148.297 79.3831,149.464 81,150.5C 81.5768,145.379 82.5768,145.379 84,150.5C 84.3076,149.692 84.8076,149.025 85.5,148.5C 88.0739,150.597 90.9073,152.264 94,153.5C 94.2492,152.376 94.7492,151.376 95.5,150.5C 95.2964,151.529 95.7964,152.529 97,153.5C 98.0601,153.746 99.2268,153.746 100.5,153.5C 102.193,155.027 104.027,156.36 106,157.5C 107.085,156.707 108.252,156.04 109.5,155.5C 109.76,156.905 110.093,158.238 110.5,159.5C 109.738,163.785 108.405,167.785 106.5,171.5C 103.715,171.067 101.381,169.734 99.5,167.5C 98.5745,168.641 97.7412,168.641 97,167.5C 96.6667,168.167 96.3333,168.833 96,169.5C 95,168.5 94,167.5 93,166.5C 92.3333,167.833 91.6667,169.167 91,170.5C 90.5291,168.754 89.8624,167.087 89,165.5C 88.2588,164.359 87.4255,164.359 86.5,165.5C 85.7189,164.271 85.2189,162.938 85,161.5C 84.5172,162.448 84.3505,163.448 84.5,164.5C 82.6693,163.948 81.0026,163.948 79.5,164.5C 78.7506,162.988 77.584,161.988 76,161.5C 73.742,162.253 71.742,162.253 70,161.5C 68.9008,158.961 67.2342,158.295 65,159.5C 64.2747,157.842 63.108,157.342 61.5,158C 63.9659,158.93 63.7993,159.763 61,160.5C 59.3745,159.711 57.8745,158.711 56.5,157.5C 55.8165,157.863 55.1499,158.196 54.5,158.5C 56.3307,152.341 58.3307,146.341 60.5,140.5 Z"/>
    </g>
    <g>
        <path style="opacity:0.959" fill="#140426" d="M 106.5,171.5 C 92.8799,175.165 79.2132,179.332 65.5,184C 58.4797,186.784 51.6463,189.95 45,193.5C 47.375,181.671 50.5417,170.004 54.5,158.5C 55.1499,158.196 55.8165,157.863 56.5,157.5C 57.8745,158.711 59.3745,159.711 61,160.5C 63.7993,159.763 63.9659,158.93 61.5,158C 63.108,157.342 64.2747,157.842 65,159.5C 67.2342,158.295 68.9008,158.961 70,161.5C 71.742,162.253 73.742,162.253 76,161.5C 77.584,161.988 78.7506,162.988 79.5,164.5C 81.0026,163.948 82.6693,163.948 84.5,164.5C 84.3505,163.448 84.5172,162.448 85,161.5C 85.2189,162.938 85.7189,164.271 86.5,165.5C 87.4255,164.359 88.2588,164.359 89,165.5C 89.8624,167.087 90.5291,168.754 91,170.5C 91.6667,169.167 92.3333,167.833 93,166.5C 94,167.5 95,168.5 96,169.5C 96.3333,168.833 96.6667,168.167 97,167.5C 97.7412,168.641 98.5745,168.641 99.5,167.5C 101.381,169.734 103.715,171.067 106.5,171.5 Z"/>
    </g>
    <g>
        <path style="opacity:0.972" fill="#ff5c01" d="M 125.5,210.5 C 126.254,212.505 127.421,213.172 129,212.5C 135.612,216.042 142.445,219.209 149.5,222C 150.469,223.758 151.636,224.258 153,223.5C 155.2,224.522 157.2,225.855 159,227.5C 159.383,226.944 159.883,226.611 160.5,226.5C 160.369,227.376 160.702,228.043 161.5,228.5C 168.016,231.259 174.349,234.259 180.5,237.5C 181.298,237.957 181.631,238.624 181.5,239.5C 172.978,246.026 164.478,252.693 156,259.5C 151.585,267.618 151.419,275.784 155.5,284C 145.977,281.824 139.477,275.991 136,266.5C 133.967,258.991 132.967,251.325 133,243.5C 130.537,234.838 125.037,232.005 116.5,235C 111.568,237.686 108.735,241.852 108,247.5C 94.5643,232.154 91.0643,214.821 97.5,195.5C 105.095,203.633 114.429,208.633 125.5,210.5 Z"/>
    </g>
    <g>
        <path style="opacity:0.916" fill="#ff4413" d="M 193.5,214.5 C 192.596,213.791 192.263,212.791 192.5,211.5C 187.877,210.958 183.543,209.624 179.5,207.5C 183.437,205.193 187.437,202.86 191.5,200.5C 193.217,204.991 193.883,209.657 193.5,214.5 Z"/>
    </g>
    <g>
        <path style="opacity:0.942" fill="#ff4810" d="M 179.5,207.5 C 183.543,209.624 187.877,210.958 192.5,211.5C 192.263,212.791 192.596,213.791 193.5,214.5C 193.784,216.415 193.451,218.081 192.5,219.5C 186.227,216.364 179.894,213.197 173.5,210C 174.056,209.617 174.389,209.117 174.5,208.5C 176.117,207.962 177.784,207.629 179.5,207.5 Z"/>
    </g>
    <g>
        <path style="opacity:0.941" fill="#ff4c0e" d="M 174.5,208.5 C 174.389,209.117 174.056,209.617 173.5,210C 179.894,213.197 186.227,216.364 192.5,219.5C 192.634,221.292 192.301,222.958 191.5,224.5C 189.198,225.86 187.532,225.193 186.5,222.5C 185.158,223.902 184.324,223.569 184,221.5C 183.667,221.833 183.333,222.167 183,222.5C 176.149,218.158 168.982,214.491 161.5,211.5C 165.862,210.628 170.196,209.628 174.5,208.5 Z"/>
    </g>
    <g>
        <path style="opacity:0.933" fill="#ff5605" d="M 125.5,210.5 C 129.135,211.114 132.802,211.448 136.5,211.5C 135.438,212.575 135.438,213.575 136.5,214.5C 141.328,216.36 146.328,218.693 151.5,221.5C 152.965,220.391 153.965,220.891 154.5,223C 157.239,222.517 159.239,223.684 160.5,226.5C 159.883,226.611 159.383,226.944 159,227.5C 157.2,225.855 155.2,224.522 153,223.5C 151.636,224.258 150.469,223.758 149.5,222C 142.445,219.209 135.612,216.042 129,212.5C 127.421,213.172 126.254,212.505 125.5,210.5 Z"/>
    </g>
    <g>
        <path style="opacity:0.976" fill="#ff5407" d="M 136.5,211.5 C 141.772,212.4 147.105,212.733 152.5,212.5C 163.354,218.759 174.688,224.259 186.5,229C 187.252,229.671 187.586,230.504 187.5,231.5C 186.471,234.891 184.471,237.557 181.5,239.5C 181.631,238.624 181.298,237.957 180.5,237.5C 174.349,234.259 168.016,231.259 161.5,228.5C 160.702,228.043 160.369,227.376 160.5,226.5C 159.239,223.684 157.239,222.517 154.5,223C 153.965,220.891 152.965,220.391 151.5,221.5C 146.328,218.693 141.328,216.36 136.5,214.5C 135.438,213.575 135.438,212.575 136.5,211.5 Z"/>
    </g>
    <g>
        <path style="opacity:0.939" fill="#ff500b" d="M 161.5,211.5 C 168.982,214.491 176.149,218.158 183,222.5C 183.333,222.167 183.667,221.833 184,221.5C 184.324,223.569 185.158,223.902 186.5,222.5C 187.532,225.193 189.198,225.86 191.5,224.5C 190.921,227.331 189.588,229.664 187.5,231.5C 187.586,230.504 187.252,229.671 186.5,229C 174.688,224.259 163.354,218.759 152.5,212.5C 155.43,211.701 158.43,211.368 161.5,211.5 Z"/>
    </g>
</svg>
